<svg xmlns="http://www.w3.org/2000/svg" width="1600" height="900" viewBox="0 0 1600 900" role="img" aria-labelledby="title desc"><title id="title">MMA FILES cover</title><desc id="desc">A generated MMA FILES cover; the article's own words are not repeated here.</desc><rect width="100%" height="100%" fill="#101116"/><rect x="60" y="60" width="1480" height="780" rx="35" fill="#181a20" stroke="#ef6c35" stroke-width="4.5"/><rect x="100.0" y="505.1" width="55.0" height="244.9" rx="9.0" fill="#ef6c35" opacity="0.51"/><rect x="187.5" y="535.1" width="55.0" height="214.9" rx="9.0" fill="#ef6c35" opacity="0.26"/><rect x="275.0" y="595.3" width="55.0" height="154.7" rx="9.0" fill="#ef6c35" opacity="0.80"/><rect x="362.5" y="625.3" width="55.0" height="124.7" rx="9.0" fill="#ef6c35" opacity="0.68"/><rect x="450.0" y="670.4" width="55.0" height="79.6" rx="9.0" fill="#ef6c35" opacity="0.35"/><rect x="537.5" y="475.0" width="55.0" height="275.0" rx="9.0" fill="#ef6c35" opacity="0.68"/><rect x="625.0" y="625.3" width="55.0" height="124.7" rx="9.0" fill="#ef6c35" opacity="0.76"/><rect x="712.5" y="580.2" width="55.0" height="169.8" rx="9.0" fill="#ef6c35" opacity="0.26"/><rect x="800.0" y="670.4" width="55.0" height="79.6" rx="9.0" fill="#ef6c35" opacity="0.22"/><rect x="887.5" y="475.0" width="55.0" height="275.0" rx="9.0" fill="#ef6c35" opacity="0.72"/><rect x="975.0" y="520.1" width="55.0" height="229.9" rx="9.0" fill="#ef6c35" opacity="0.63"/><rect x="1062.5" y="640.4" width="55.0" height="109.6" rx="9.0" fill="#ef6c35" opacity="0.47"/><rect x="1150.0" y="520.1" width="55.0" height="229.9" rx="9.0" fill="#ef6c35" opacity="0.39"/><rect x="1237.5" y="490.0" width="55.0" height="260.0" rx="9.0" fill="#ef6c35" opacity="0.26"/><rect x="1325.0" y="670.4" width="55.0" height="79.6" rx="9.0" fill="#ef6c35" opacity="0.80"/><rect x="1412.5" y="685.5" width="55.0" height="64.5" rx="9.0" fill="#ef6c35" opacity="0.39"/><text x="100" y="200" fill="#ef6c35" font-family="Arial, sans-serif" font-size="35" font-weight="700" letter-spacing="5.6">MMA FILES</text><text x="100" y="300" fill="#f7f4ec" font-family="monospace" font-size="37">2026-08-05</text><text x="100" y="385" fill="#9da1aa" font-family="monospace" font-size="29" letter-spacing="3.5">FIGHT-WEEK-PREVIEW   AMANDA-LEMOS   BILLY-QUARANTILLO</text><text x="1500" y="805" text-anchor="end" fill="#6c7079" font-family="monospace" font-size="25">FRAME · db752f582fc4ce21</text></svg>